<svg xmlns="http://www.w3.org/2000/svg" width="64" height="20" viewBox="0 0 64 20" fill="none" stroke-linecap="round" stroke-linejoin="round">
	<defs>
		<path id="n" transform="translate(4 4)" d="M0 4V12M0 8A1 1 0 018 8V12" />
		<path id="o" transform="translate(15 4)" d="M0 8A1 1 0 008 8 1 1 0 000 8" />
		<path id="b" transform="translate(26 4)" d="M0 1V8A1 1 0 008 8 1 1 0 000 8" />
		<path transform="translate(37 4) rotate(-20 4 8)" id="e" d="M4 8H8A4 4 0 106 11.465" />
		<path id="u" transform="translate(48 4)" d="M0 4V8A1 1 0 008 8V4" />
		<path id="i" transform="translate(60 4)" d="M0 4V12M0 0V0" />
	</defs>
	<g stroke="#3377ff" stroke-width="5">
		<use href="#n" />
		<use href="#o" />
		<use href="#b" />
		<use href="#e" />
		<use href="#u"/>
		<use href="#i"/>
	</g>
	<g stroke="#ffffff" stroke-width="2">
		<use href="#n" />
		<use href="#o" />
		<use href="#b" />
		<use href="#e" />
		<use href="#u"/>
		<use href="#i"/>
	</g>
</svg>
